<svg xmlns="http://www.w3.org/2000/svg" width="821.026" height="367.72" viewBox="0 0 821.026 367.72">
    <defs>
        <style>
            @import url("https://fonts.googleapis.com/css?family=Libre+Baskerville:regular");
            #logo {
            color: inherit;
            }
            .text {
            font-family: LibreBaskerville-Regular, Libre Baskerville;
            }

            #John{
            font-size: 180px;
            }

            #the_Dev {
            font-size: 115px;
            }

            .rectangles {
            fill: none;
            stroke-linejoin: round;
            stroke-width: 5px;
            }

        </style>
    </defs>
    <g id="logo" transform="translate(6.026)">
        <g id="Logo_Words" transform="translate(349)">
            <text id="John" class="text" transform="translate(26)" fill="currentcolor">
                <tspan x="0" y="175">John</tspan>
            </text>
            <text id="the_Dev" class="text" transform="translate(0 336.72)" fill="currentcolor">
                <tspan x="0" y="0">the Dev</tspan>
            </text>
        </g>
        <g id="Logo_Image" transform="translate(0 30.72)">
            <g id="Rectangle_1" class="rectangles" transform="translate(92.1)" stroke="currentcolor">
                <rect width="125" height="125"/>
                <rect x="-2.5" y="-2.5" width="130" height="130"/>
            </g>
            <g id="Rectangle_2" class="rectangles" transform="translate(177.877 89.488) rotate(135)" stroke="currentcolor">
                <rect width="125" height="125"/>
                <rect x="-2.5" y="-2.5" width="130" height="130"/>
            </g>
            <g id="Rectangle_3" class="rectangles" transform="translate(219.712 1.1) rotate(45)" stroke="currentcolor">
                <rect width="125" height="125"/>
                <rect x="-2.5" y="-2.5" width="130" height="130"/>
            </g>
            <g id="Rectangle_4" class="rectangles" transform="translate(184.145 92.075)" stroke="currentcolor">
                <rect width="125" height="125"/>
                <rect x="-2.5" y="-2.5" width="130" height="130"/>
            </g>
            <g id="Rectangle_5" class="rectangles" transform="translate(92.145 184.15)" stroke="currentcolor">
                <rect width="125" height="125"/>
                <rect x="-2.5" y="-2.5" width="130" height="130"/>
            </g>
            <g id="Rectangle_6" class="rectangles" transform="translate(131.268 219.662) rotate(-45)" stroke="currentcolor">
                <rect width="125" height="125"/>
                <rect x="-2.5" y="-2.5" width="130" height="130"/>
            </g>
            <g id="Rectangle_7" class="rectangles" transform="translate(89.433 308.05) rotate(-135)" stroke="currentcolor">
                <rect width="125" height="125"/>
                <rect x="-2.5" y="-2.5" width="130" height="130"/>
            </g>
            <g id="Rectangle_8" class="rectangles" transform="translate(0 92.075)" stroke="currentcolor">
                <rect width="125" height="125"/>
                <rect x="-2.5" y="-2.5" width="130" height="130"/>
            </g>
        </g>
    </g>
</svg>
