<svg xmlns="http://www.w3.org/2000/svg" width="821.026" height="367.72" viewBox="0 0 821.026 367.72">
  <defs>
    <style>
      @import url("https://fonts.googleapis.com/css?family=Libre+Baskerville:regular");
      .cls-1, .cls-2 {
        fill: #fff;
        font-family: LibreBaskerville-Regular, Libre Baskerville;
      }

      .cls-1 {
        font-size: 180px;
      }

      .cls-2 {
        font-size: 115px;
      }

      .cls-3, .cls-5 {
        fill: none;
      }

      .cls-3 {
        stroke: #fff;
        stroke-linejoin: round;
        stroke-width: 5px;
      }

      .cls-4 {
        stroke: none;
      }
    </style>
  </defs>
  <g id="logo" transform="translate(6.026)">
    <g id="Logo_Words" transform="translate(349)">
      <text id="John" class="cls-1" transform="translate(26)"><tspan x="0" y="175">John</tspan></text>
      <text id="the_Dev" data-name="the Dev" class="cls-2" transform="translate(0 336.72)"><tspan x="0" y="0">the Dev</tspan></text>
    </g>
    <g id="Logo_Image" transform="translate(0 30.72)">
      <g id="Rectangle_13" data-name="Rectangle 13" class="cls-3" transform="translate(92.1)">
        <rect class="cls-4" width="125" height="125"/>
        <rect class="cls-5" x="-2.5" y="-2.5" width="130" height="130"/>
      </g>
      <g id="Rectangle_16" data-name="Rectangle 16" class="cls-3" transform="translate(177.877 89.488) rotate(135)">
        <rect class="cls-4" width="125" height="125"/>
        <rect class="cls-5" x="-2.5" y="-2.5" width="130" height="130"/>
      </g>
      <g id="Rectangle_18" data-name="Rectangle 18" class="cls-3" transform="translate(219.712 1.1) rotate(45)">
        <rect class="cls-4" width="125" height="125"/>
        <rect class="cls-5" x="-2.5" y="-2.5" width="130" height="130"/>
      </g>
      <g id="Rectangle_20" data-name="Rectangle 20" class="cls-3" transform="translate(184.145 92.075)">
        <rect class="cls-4" width="125" height="125"/>
        <rect class="cls-5" x="-2.5" y="-2.5" width="130" height="130"/>
      </g>
      <g id="Rectangle_21" data-name="Rectangle 21" class="cls-3" transform="translate(92.145 184.15)">
        <rect class="cls-4" width="125" height="125"/>
        <rect class="cls-5" x="-2.5" y="-2.5" width="130" height="130"/>
      </g>
      <g id="Rectangle_22" data-name="Rectangle 22" class="cls-3" transform="translate(131.268 219.662) rotate(-45)">
        <rect class="cls-4" width="125" height="125"/>
        <rect class="cls-5" x="-2.5" y="-2.5" width="130" height="130"/>
      </g>
      <g id="Rectangle_24" data-name="Rectangle 24" class="cls-3" transform="translate(89.433 308.05) rotate(-135)">
        <rect class="cls-4" width="125" height="125"/>
        <rect class="cls-5" x="-2.5" y="-2.5" width="130" height="130"/>
      </g>
      <g id="Rectangle_26" data-name="Rectangle 26" class="cls-3" transform="translate(0 92.075)">
        <rect class="cls-4" width="125" height="125"/>
        <rect class="cls-5" x="-2.5" y="-2.5" width="130" height="130"/>
      </g>
    </g>
  </g>
</svg>
